<?xml version="1.0" standalone="no"?>
<!DOCTYPE svg PUBLIC "-//W3C//DTD SVG 20010904//EN"
 "http://www.w3.org/TR/2001/REC-SVG-20010904/DTD/svg10.dtd">
<svg version="1.0" xmlns="http://www.w3.org/2000/svg"
 width="700.000000pt" height="700.000000pt" viewBox="0 0 700.000000 700.000000"
 preserveAspectRatio="xMidYMid meet">
<metadata>
Created by potrace 1.11, written by Peter Selinger 2001-2013
</metadata>
<g transform="translate(0.000000,700.000000) scale(0.100000,-0.100000)"
fill="#000000" stroke="none">
<path d="M2818 6293 c-4 -7 -3 -1362 1 -1388 1 -7 244 -10 707 -10 698 0 707
0 713 20 4 11 6 326 6 700 l-1 680 -711 3 c-392 1 -713 -1 -715 -5z"/>
<path d="M979 6116 c-1 -39 -1 -1085 0 -1108 1 -17 35 -18 576 -18 l575 0 0
579 0 579 -575 0 -575 0 -1 -32z"/>
<path d="M4975 6135 c-2 -5 -3 -264 -2 -575 l2 -565 585 0 585 0 0 568 c0 313
-2 572 -5 576 -8 12 -1162 8 -1165 -4z"/>
<path d="M2710 4283 c-1 -30 -1 -1450 0 -1523 l0 -46 798 1 797 0 3 798 2 797
-800 0 -800 0 0 -27z"/>
<path d="M717 4272 c-16 -3 -17 -58 -17 -727 l0 -723 727 1 728 2 0 723 c0
397 -2 722 -5 723 -20 2 -1420 3 -1433 1z"/>
<path d="M4795 3542 l1 -737 752 -1 752 -1 0 738 0 738 -752 0 -753 0 0 -737z"/>
<path d="M2825 2142 c-3 -3 -5 -329 -5 -724 l0 -718 720 0 720 0 0 723 0 724
-715 0 c-393 0 -717 -3 -720 -5z"/>
<path d="M4945 2132 c-3 -3 -5 -278 -5 -612 l0 -606 604 0 604 0 -1 610 -2
611 -597 1 c-329 0 -600 -2 -603 -4z"/>
<path d="M980 1438 l0 -568 583 2 582 3 0 565 0 565 -582 1 -583 0 0 -568z"/>
</g>
</svg>
